<svg version="1.2" baseProfile="tiny-ps" xmlns="http://www.w3.org/2000/svg" viewBox="0 0 40 36" width="40" height="36">
	<title>download-svg</title>
	<style>
		tspan { white-space:pre }
		.shp0 { fill: none } 
		.shp1 { fill: #9b59b6 } 
	</style>
	<g id="Layer">
		<path id="Layer" class="shp0" d="M-2.93 41.91L-2.93 -4.3L42.93 -4.3L42.93 41.91L-2.93 41.91Z" />
		<g id="Layer">
			<path id="Layer" fill-rule="evenodd" class="shp1" d="M20.06 0.32C20.32 0.33 20.57 0.41 20.79 0.54L28.43 5.16C29.04 5.51 29.35 6.23 29.16 6.92C28.97 7.6 28.35 8.07 27.64 8.05L27.64 35.75L24.59 35.75L24.59 31.13C24.59 30.28 23.9 29.59 23.06 29.59L16.94 29.59C16.1 29.59 15.41 30.28 15.41 31.13L15.41 35.75L12.36 35.75L12.36 8.05C11.65 8.07 11.03 7.6 10.84 6.92C10.65 6.23 10.96 5.51 11.57 5.16L19.21 0.54C19.47 0.39 19.76 0.31 20.06 0.32ZM16.94 9.56C16.94 11.27 18.31 12.64 20 12.64C21.69 12.64 23.06 11.27 23.06 9.56C23.06 7.86 21.69 6.48 20 6.48C18.31 6.48 16.94 7.86 16.94 9.56ZM9.3 12.64L9.3 17.27L6.24 17.27L6.24 20.35L9.3 20.35L9.3 23.43L6.24 23.43L6.24 26.51L9.3 26.51L9.3 29.59L6.24 29.59L6.24 32.67L9.3 32.67L9.3 35.75L1.65 35.75L1.65 15.73C0.81 15.73 0.12 15.04 0.12 14.19C0.12 13.33 0.81 12.64 1.65 12.64L9.3 12.64ZM38.35 12.64C39.19 12.64 39.88 13.33 39.88 14.19C39.88 15.04 39.19 15.73 38.35 15.73L38.35 35.75L30.7 35.75L30.7 32.67L33.76 32.67L33.76 29.59L30.7 29.59L30.7 26.51L33.76 26.51L33.76 23.43L30.7 23.43L30.7 20.35L33.76 20.35L33.76 17.27L30.7 17.27L30.7 12.64L38.35 12.64ZM15.41 20.35L18.47 20.35L18.47 17.27L15.41 17.27L15.41 20.35ZM21.53 20.35L24.59 20.35L24.59 17.27L21.53 17.27L21.53 20.35ZM15.41 26.51L18.47 26.51L18.47 23.43L15.41 23.43L15.41 26.51ZM21.53 26.51L24.59 26.51L24.59 23.43L21.53 23.43L21.53 26.51Z" />
		</g>
	</g>
</svg>