<svg xmlns="http://www.w3.org/2000/svg" width="20.513" height="20.55" viewBox="0 0 20.513 20.55">
  <g id="footer-call" transform="translate(0.003 0)">
    <g id="Layer_48" data-name="Layer 48">
      <path id="Path_16685" data-name="Path 16685" d="M15.36,20.55A15.05,15.05,0,0,1,4.71,15.84,14.9,14.9,0,0,1,0,4.66,2.78,2.78,0,0,1,.82,2.84L3.15.51a1.75,1.75,0,0,1,2.47,0L9,3.89A1.76,1.76,0,0,1,9,6.37L6.88,8.49a.25.25,0,0,0,0,.36l4.82,4.82c.13.13.23.13.35,0l2.13-2.12a1.74,1.74,0,0,1,2.48,0L20,14.93a1.75,1.75,0,0,1,0,2.47l-2.33,2.33a2.78,2.78,0,0,1-1.82.81Zm-11-19a.22.22,0,0,0-.17.07L1.88,3.9a1.3,1.3,0,0,0-.37.83,13.43,13.43,0,0,0,4.26,10A13.43,13.43,0,0,0,15.82,19a1.3,1.3,0,0,0,.83-.37L19,16.34a.25.25,0,0,0,.07-.17A.26.26,0,0,0,19,16l-3.4-3.39a.25.25,0,0,0-.36,0h0l-2.12,2.12a1.75,1.75,0,0,1-1.24.52h0a1.75,1.75,0,0,1-1.24-.52L5.82,9.91a1.74,1.74,0,0,1,0-2.48L7.94,5.31a.25.25,0,0,0,0-.36L4.56,1.57a.24.24,0,0,0-.18-.07ZM14.71,12.08Z" fill="#fff"/>
    </g>
  </g>
</svg>
