<svg xmlns="http://www.w3.org/2000/svg" width="51.786" height="46" viewBox="0 0 51.786 46">
  <g id="Group_16628" data-name="Group 16628" transform="translate(-1831.5 -5323.5)">
    <g id="Group_15961" data-name="Group 15961" transform="translate(17676 23356.305)">
      <g id="noun_message_computer_3836245" data-name="noun_message computer_3836245" transform="translate(-15844 -18032.305)">
        <g id="Capa_2" data-name="Capa 2" transform="translate(0 0)">
          <g id="Capa_1" data-name="Capa 1" transform="translate(0 0)">
            <path id="Path_19368" data-name="Path 19368" d="M46.83-2.326H3.956A3.964,3.964,0,0,0,0,1.628v28.9a3.964,3.964,0,0,0,3.956,3.954H17.521l-.655,6.549H14.335a.819.819,0,1,0,0,1.637H36.452a.819.819,0,1,0,0-1.637H33.92l-.655-6.549H46.83a3.964,3.964,0,0,0,3.956-3.954V1.628A3.964,3.964,0,0,0,46.83-2.326ZM3.956-.688H46.83a2.318,2.318,0,0,1,2.318,2.317v31.49H1.638V1.628A2.318,2.318,0,0,1,3.956-.688ZM32.266,41.036H18.521l.655-6.549H31.611ZM46.83,32.85H3.956a2.318,2.318,0,0,1-2.318-2.317v3.136h47.51V30.533A2.318,2.318,0,0,1,46.83,32.85Z" transform="translate(0 2.326)" fill="#a967aa" stroke="#a967aa" stroke-width="1"/>
          </g>
        </g>
      </g>
    </g>
    <path id="Path_19369" data-name="Path 19369" d="M12.719,21.644h0a2.958,2.958,0,0,1-2.267-1.055C7.246,16.68,2.386,9.435,5.813,3.728A7.636,7.636,0,0,1,9.891.483,8.092,8.092,0,0,1,20.746,8.067c0,4.847-3.649,9.942-5.825,12.535A2.88,2.88,0,0,1,12.719,21.644Zm0-19.689a6.776,6.776,0,0,0-2.176.378A5.707,5.707,0,0,0,7.481,4.744C4.575,9.578,9.644,16.563,11.963,19.338a.99.99,0,0,0,.756.352h0a.925.925,0,0,0,.73-.339c2.007-2.4,5.369-7.049,5.369-11.284a6.085,6.085,0,0,0-2.606-4.978,5.981,5.981,0,0,0-3.505-1.134Z" transform="translate(1844.892 5330.897)" fill="#a967aa"/>
    <path id="Path_19370" data-name="Path 19370" d="M11.785,10.883a3.741,3.741,0,1,1,3.728-3.728A3.741,3.741,0,0,1,11.785,10.883Zm0-5.465a1.73,1.73,0,1,1,0,.013Z" transform="translate(1845.776 5332.137)" fill="#a967aa"/>
  </g>
</svg>
