<svg xmlns="http://www.w3.org/2000/svg" width="31" height="31" viewBox="0 0 31 31">
  <g id="social-instagram" transform="translate(-327 -622)">
    <rect id="Rectangle_6678" data-name="Rectangle 6678" width="31" height="31" transform="translate(327 622)" fill="#fff" opacity="0"/>
    <g id="Group_14775" data-name="Group 14775" transform="translate(330 626)">
      <path id="Path_3" data-name="Path 3" d="M11.967,2.127a36.694,36.694,0,0,1,4.787.133,6.167,6.167,0,0,1,2.26.4,4.67,4.67,0,0,1,2.26,2.26,6.167,6.167,0,0,1,.4,2.26c0,1.2.133,1.6.133,4.787a36.693,36.693,0,0,1-.133,4.787,6.167,6.167,0,0,1-.4,2.26,4.67,4.67,0,0,1-2.26,2.26,6.167,6.167,0,0,1-2.26.4c-1.2,0-1.6.133-4.787.133a36.693,36.693,0,0,1-4.787-.133,6.167,6.167,0,0,1-2.26-.4,4.67,4.67,0,0,1-2.26-2.26,6.167,6.167,0,0,1-.4-2.26c0-1.2-.133-1.6-.133-4.787A36.694,36.694,0,0,1,2.26,7.18a6.167,6.167,0,0,1,.4-2.26A4.776,4.776,0,0,1,3.59,3.59a2.248,2.248,0,0,1,1.33-.931,6.167,6.167,0,0,1,2.26-.4,36.694,36.694,0,0,1,4.787-.133m0-2.127a39.289,39.289,0,0,0-4.92.133A8.209,8.209,0,0,0,4.122.665a5.205,5.205,0,0,0-2.127,1.33A5.205,5.205,0,0,0,.665,4.122,6.058,6.058,0,0,0,.133,7.047,39.289,39.289,0,0,0,0,11.967a39.289,39.289,0,0,0,.133,4.92,8.209,8.209,0,0,0,.532,2.925,5.205,5.205,0,0,0,1.33,2.128,5.205,5.205,0,0,0,2.127,1.33,8.209,8.209,0,0,0,2.925.532,39.288,39.288,0,0,0,4.92.133,39.288,39.288,0,0,0,4.92-.133,8.209,8.209,0,0,0,2.925-.532,5.579,5.579,0,0,0,3.457-3.457,8.209,8.209,0,0,0,.532-2.925c0-1.33.133-1.729.133-4.92a39.288,39.288,0,0,0-.133-4.92,8.209,8.209,0,0,0-.532-2.925,5.205,5.205,0,0,0-1.33-2.127A5.205,5.205,0,0,0,19.812.665,8.209,8.209,0,0,0,16.887.133,39.288,39.288,0,0,0,11.967,0m0,5.851a6.018,6.018,0,0,0-6.117,6.117,6.117,6.117,0,1,0,6.117-6.117m0,10.106a3.918,3.918,0,0,1-3.989-3.989,3.918,3.918,0,0,1,3.989-3.989,3.918,3.918,0,0,1,3.989,3.989,3.918,3.918,0,0,1-3.989,3.989M18.35,4.122a1.463,1.463,0,1,0,1.463,1.463A1.476,1.476,0,0,0,18.35,4.122" fill="#a967aa"/>
    </g>
  </g>
</svg>
