<svg xmlns="http://www.w3.org/2000/svg" width="31" height="31" viewBox="0 0 31 31">
  <g id="social-youtube" transform="translate(-369 -560)">
    <rect id="Rectangle_7248" data-name="Rectangle 7248" width="31" height="31" transform="translate(369 560)" fill="#fff" opacity="0"/>
    <path id="Icon_simple-youtube" data-name="Icon simple-youtube" d="M26.626,8.358A3.407,3.407,0,0,0,24.26,5.992c-2.119-.568-10.647-.568-10.647-.568s-8.507-.011-10.647.568A3.407,3.407,0,0,0,.6,8.358a35.409,35.409,0,0,0-.592,6.578A35.408,35.408,0,0,0,.6,21.489a3.407,3.407,0,0,0,2.366,2.366c2.117.569,10.647.569,10.647.569s8.506,0,10.647-.569a3.407,3.407,0,0,0,2.366-2.366,35.408,35.408,0,0,0,.567-6.553A35.407,35.407,0,0,0,26.626,8.358ZM10.89,19.005V10.854l7.1,4.082Z" transform="translate(370.9 560.576)" fill="#a967aa"/>
  </g>
</svg>
