<svg id="subscribe-mail" xmlns="http://www.w3.org/2000/svg" width="21.32" height="17.19" viewBox="0 0 21.32 17.19">
  <g id="Layer_21" data-name="Layer 21">
    <path id="Path_16747" data-name="Path 16747" d="M18.57,17.19H2.75A2.75,2.75,0,0,1,0,14.44V2.75A2.75,2.75,0,0,1,2.75,0H18.57a2.75,2.75,0,0,1,2.75,2.75V14.44A2.76,2.76,0,0,1,18.57,17.19ZM2.75,1.5A1.25,1.25,0,0,0,1.5,2.75V14.44a1.25,1.25,0,0,0,1.25,1.25H18.57a1.25,1.25,0,0,0,1.25-1.25V2.75A1.25,1.25,0,0,0,18.57,1.5Z" fill="#a967aa"/>
    <path id="Path_16748" data-name="Path 16748" d="M10.67,9.67a2.44,2.44,0,0,1-1.55-.56l-8.3-7A.77.77,0,0,1,.73,1.09.76.76,0,0,1,1.79,1l8.3,7a.91.91,0,0,0,1.16,0l8.29-7a.76.76,0,0,1,1.06.09.75.75,0,0,1-.09,1.06l-8.3,7A2.44,2.44,0,0,1,10.67,9.67Z" fill="#a967aa"/>
  </g>
</svg>
