<svg xmlns="http://www.w3.org/2000/svg" width="26" height="26" viewBox="0 0 26 26">
  <g id="Fees" transform="translate(-277 -1077)">
    <rect id="Rectangle_7243" data-name="Rectangle 7243" width="26" height="26" transform="translate(277 1077)" fill="#fff" opacity="0"/>
    <g id="noun_fees_935907" transform="translate(270.8 1064.5)">
      <g id="Group_16652" data-name="Group 16652" transform="translate(9 17)">
        <g id="Group_16651" data-name="Group 16651">
          <path id="Path_19374" data-name="Path 19374" d="M18,17a9,9,0,1,0,9,9A9.01,9.01,0,0,0,18,17Zm-.6,8.4a2.392,2.392,0,0,1,1.2,4.466V30.8a.6.6,0,1,1-1.2,0v-.6H15.6a.6.6,0,1,1,0-1.2h1.8a1.2,1.2,0,1,0,0-2.4,2.4,2.4,0,0,1,0-4.8v-.6a.6.6,0,0,1,1.2,0v.6h.6a.6.6,0,0,1,0,1.2H17.4a1.2,1.2,0,1,0,0,2.4Z" transform="translate(-9 -17)" fill="#a967aa"/>
          <path id="Path_19375" data-name="Path 19375" d="M50.024,28.776l-3.6-3.6a.6.6,0,1,0-.848.848L48.152,28.6H43.6a.6.6,0,1,0,0,1.2h4.552l-2.576,2.576a.6.6,0,1,0,.848.848l3.6-3.6A.6.6,0,0,0,50.024,28.776Z" transform="translate(-27 -20.2)" fill="#a967aa"/>
        </g>
      </g>
    </g>
  </g>
</svg>
