<svg xmlns="http://www.w3.org/2000/svg" xmlns:xlink="http://www.w3.org/1999/xlink" width="1711" height="165" viewBox="0 0 1711 165">
  <defs>
    <clipPath id="clip-path">
      <rect id="Rectangle_6042" data-name="Rectangle 6042" width="1711" height="165" transform="translate(97 5328)" fill="#fff" stroke="#707070" stroke-width="1"/>
    </clipPath>
  </defs>
  <g id="Mask_Group_50" data-name="Mask Group 50" transform="translate(-97 -5328)" clip-path="url(#clip-path)">
    <g id="Group_15150" data-name="Group 15150">
      <g id="Group_15147" data-name="Group 15147" transform="translate(883.704 4938.465)" opacity="0.14">
        <g id="Group_15146" data-name="Group 15146" transform="translate(815.517 443.785)">
          <path id="Path_16917" data-name="Path 16917" d="M1786.186,590.609l-5.565,9.113,47.9,32.68Z" transform="translate(-1747.744 -583.196)" fill="#bdcdff"/>
          <path id="Path_16918" data-name="Path 16918" d="M1760.5,672.3l2.9,10.451,47.809,9.785Z" transform="translate(-1732.563 -644.832)" fill="#bdcdff"/>
          <path id="Path_16919" data-name="Path 16919" d="M1727.461,646.036,1646.682,618.5l27.938-9.825Z" transform="translate(-1646.682 -596.83)" fill="#fff"/>
          <path id="Path_16920" data-name="Path 16920" d="M1803.292,567.823l42.336,41.794-24.779-49.207Z" transform="translate(-1764.849 -560.41)" fill="#fff"/>
        </g>
      </g>
      <path id="Path_16921" data-name="Path 16921" d="M1384.616,5607s-84.5-63.682-213.018-48.418-160.829,67.571-274.675,115.263-206.154,47.692-420-106.154" transform="translate(340 -223)" fill="none" stroke="#f5f5f5" stroke-linecap="round" stroke-width="2" stroke-dasharray="5 13" opacity="0.06"/>
      <path id="Path_16922" data-name="Path 16922" d="M1737.928,5542.958s-119.519,78.085-282.2,124.715c-91.7,26.284-237.859,37.317-284.127,31.823-128.521-15.263-160.829-67.571-274.675-115.263s-206.154-47.692-420,106.154" transform="matrix(0.966, 0.259, -0.259, 0.966, 1205.787, -223.975)" fill="none" stroke="#f5f5f5" stroke-linecap="round" stroke-width="2" stroke-dasharray="5 13" opacity="0.06"/>
      <g id="Group_15149" data-name="Group 15149" transform="translate(-2075.035 5100.546)" opacity="0.14">
        <path id="Path_16923" data-name="Path 16923" d="M2261.559,317.146l2.939,9.269L2215.035,344.9Z" transform="translate(0 -25.263)" fill="#bdcdff"/>
        <path id="Path_16924" data-name="Path 16924" d="M2271.873,385.91l-4.836,8.612-44.406-1.742Z" transform="translate(-5.385 -74.012)" fill="#bdcdff"/>
        <path id="Path_16925" data-name="Path 16925" d="M2215.035,360.014l77.419-6.785-22.57-14.763Z" transform="translate(0 -40.378)" fill="#fff"/>
        <path id="Path_16926" data-name="Path 16926" d="M2261.559,291.882l-46.525,27.754,32.61-38.126Z" fill="#fff"/>
      </g>
    </g>
  </g>
</svg>
