<svg id="subscribe-mail" xmlns="http://www.w3.org/2000/svg" width="45.382" height="36.591" viewBox="0 0 45.382 36.591">
  <g id="Layer_21" data-name="Layer 21">
    <path id="Path_16747" data-name="Path 16747" d="M39.528,36.591H5.854A5.854,5.854,0,0,1,0,30.737V5.854A5.854,5.854,0,0,1,5.854,0H39.528a5.854,5.854,0,0,1,5.854,5.854V30.737A5.875,5.875,0,0,1,39.528,36.591ZM5.854,3.193A2.661,2.661,0,0,0,3.193,5.854V30.737A2.661,2.661,0,0,0,5.854,33.4H39.528a2.661,2.661,0,0,0,2.661-2.661V5.854a2.661,2.661,0,0,0-2.661-2.661Z" fill="#75bee9"/>
    <path id="Path_16748" data-name="Path 16748" d="M22.06,19.652a5.194,5.194,0,0,1-3.3-1.192L1.093,3.559A1.639,1.639,0,0,1,.9,1.388,1.618,1.618,0,0,1,3.158,1.2L20.826,16.1a1.937,1.937,0,0,0,2.469,0L40.941,1.2a1.618,1.618,0,0,1,2.256.192,1.6,1.6,0,0,1-.192,2.256l-17.668,14.9A5.194,5.194,0,0,1,22.06,19.652Z" transform="translate(0.652 0.932)" fill="#75bee9"/>
  </g>
</svg>
