<svg xmlns="http://www.w3.org/2000/svg" width="84" height="84" viewBox="0 0 84 84">
  <g id="Group_16654" data-name="Group 16654" transform="translate(-675 -4255)">
    <circle id="Ellipse_465" data-name="Ellipse 465" cx="42" cy="42" r="42" transform="translate(675 4255)" fill="#a967aa"/>
    <path id="Path_19376" data-name="Path 19376" d="M22.2,36.093l-.674-1.112q5.728-3.032,5.728-5.728,0-1.146-2.156-2.257a7.978,7.978,0,0,1-2.678-2.021,4.266,4.266,0,0,1-.758-2.628,5.234,5.234,0,0,1,5.188-5.222,4.617,4.617,0,0,1,3.824,1.887,7.792,7.792,0,0,1,1.466,4.919,11.371,11.371,0,0,1-3.773,8.558,14.956,14.956,0,0,1-2.51,1.9A28.887,28.887,0,0,1,22.2,36.093Zm-13.308,0-.674-1.112q5.728-3.066,5.728-5.728a1.577,1.577,0,0,0-.472-1.129A7,7,0,0,0,11.792,27a7.484,7.484,0,0,1-2.645-2,4.3,4.3,0,0,1-.792-2.645,5.041,5.041,0,0,1,1.516-3.706,4.962,4.962,0,0,1,3.639-1.516,4.649,4.649,0,0,1,3.858,1.887,7.792,7.792,0,0,1,1.466,4.919,11.291,11.291,0,0,1-.96,4.582,12.21,12.21,0,0,1-2.847,3.976A19.987,19.987,0,0,1,8.895,36.093Z" transform="translate(696.779 4270.875)" fill="#fff"/>
  </g>
</svg>
