<svg xmlns="http://www.w3.org/2000/svg" width="31" height="31" viewBox="0 0 31 31">
  <g id="social_linkedin" transform="translate(-427 -560)">
    <rect id="Rectangle_7249" data-name="Rectangle 7249" width="31" height="31" transform="translate(427 560)" fill="#fff" opacity="0"/>
    <path id="Icon_ionic-logo-linkedin" data-name="Icon ionic-logo-linkedin" d="M25.642,4.5H6.463A1.875,1.875,0,0,0,4.5,6.29V25.51a2.022,2.022,0,0,0,1.963,1.969H25.636A1.919,1.919,0,0,0,27.48,25.51V6.29A1.762,1.762,0,0,0,25.642,4.5ZM11.623,23.655H8.331V13.419h3.292ZM10.091,11.863h-.024A1.69,1.69,0,0,1,8.331,10.1a1.7,1.7,0,0,1,1.778-1.766,1.7,1.7,0,0,1,1.76,1.766A1.7,1.7,0,0,1,10.091,11.863ZM23.655,23.655H20.363v-5.6c0-1.341-.479-2.257-1.67-2.257A1.8,1.8,0,0,0,17,17.016a2.216,2.216,0,0,0-.114.808v5.83H13.6V13.419h3.292v1.425a3.333,3.333,0,0,1,2.969-1.664c2.161,0,3.8,1.425,3.8,4.5v5.98Z" transform="translate(426.5 559.5)" fill="#75bee9"/>
  </g>
</svg>
