<svg xmlns="http://www.w3.org/2000/svg" width="20.397" height="20.899" viewBox="0 0 20.397 20.899"><g transform="translate(-1889.186 -626.55)"><path d="M211.362,5226.3a1,1,0,0,1-.734-.32l-6.043-6.524a1,1,0,0,1,0-1.359l6.043-6.524a1,1,0,1,1,1.467,1.359l-5.414,5.845,5.414,5.845a1,1,0,0,1-.733,1.68Z" transform="translate(1684.868 -4581.774)" fill="#75bee9"/><path d="M214.071,5232.149a1,1,0,0,1-.734-.32l-8.752-9.45a1,1,0,0,1,0-1.359l8.752-9.449a1,1,0,1,1,1.467,1.359l-8.123,8.77,8.123,8.771a1,1,0,0,1-.733,1.68Z" transform="translate(1694.513 -4584.7)" fill="#75bee9"/></g></svg>