<svg version="1.2" baseProfile="tiny-ps" xmlns="http://www.w3.org/2000/svg" viewBox="0 0 24 24" width="24" height="24">
	<title>download-svg</title>
	<style>
		tspan { white-space:pre }
		.shp0 { fill: none } 
		.shp1 { fill: #9b59b6 } 
	</style>
	<g id="Layer">
		<path id="Layer" class="shp0" d="M0 24L0 0L24 0L24 24L0 24Z" />
		<g id="Layer">
			<path id="Layer" fill-rule="evenodd" class="shp1" d="M13 3C16.63 3 21 3.24 21 7L21 18C21 18.88 20.61 19.67 20 20.22L20 21.5C20 22.33 19.33 23 18.5 23C17.67 23 17 22.33 17 21.5L17 21L7 21L7 21.5C7 22.33 6.33 23 5.5 23C4.67 23 4 22.33 4 21.5L4 20.22C3.39 19.67 3 18.88 3 18L3 7C3 3.24 7.37 3 11 3L13 3ZM6 7C5.45 7 5 7.45 5 8L5 12C5 12.55 5.45 13 6 13L18 13C18.55 13 19 12.55 19 12L19 8C19 7.45 18.55 7 18 7L6 7ZM6.5 16C5.67 16 5 16.67 5 17.5C5 18.33 5.67 19 6.5 19C7.33 19 8 18.33 8 17.5C8 16.67 7.33 16 6.5 16ZM17.5 16C16.67 16 16 16.67 16 17.5C16 18.33 16.67 19 17.5 19C18.33 19 19 18.33 19 17.5C19 16.67 18.33 16 17.5 16Z" />
		</g>
	</g>
</svg>