<svg xmlns="http://www.w3.org/2000/svg" width="26" height="26" viewBox="0 0 26 26">
  <g id="Group_1505" data-name="Group 1505" transform="translate(-0.436)">
    <rect id="Rectangle_770" data-name="Rectangle 770" width="26" height="26" transform="translate(0.436)" fill="#fff" opacity="0"/>
    <g id="noun_Time_976095" transform="translate(4.807 4.807)">
      <g id="Group_1456" data-name="Group 1456" transform="translate(0 0)">
        <path id="Path_4438" data-name="Path 4438" d="M52.006,28.43a.774.774,0,0,0,.088-.083c.007-.008.012-.018.018-.026a.748.748,0,0,0,.07-.1.847.847,0,0,0-.322-1.14h0l-4.8-2.784a.2.2,0,0,1-.1-.171V19.35a.828.828,0,1,0-1.656,0v5.356a.818.818,0,0,0,.49.767l5.256,3.041a.873.873,0,0,0,.657.078.816.816,0,0,0,.279-.139C51.991,28.446,52,28.437,52.006,28.43Z" transform="translate(-37.542 -15.919)" fill="none"/>
        <path id="Path_4439" data-name="Path 4439" d="M19.784,7.6a8.651,8.651,0,1,0-6.123,14.759c.275,0,.549-.014.819-.039l.04,0q.422-.041.835-.123h.007a8.6,8.6,0,0,0,4.42-2.371h0a8.578,8.578,0,0,0,2.483-5.136c0-.036.01-.072.014-.108a8.638,8.638,0,0,0-2.5-6.977ZM18.5,17.66l-5.256-3.041a.818.818,0,0,1-.49-.767V8.5a.828.828,0,1,1,1.656,0v4.775a.2.2,0,0,0,.1.171l4.8,2.784h0a.847.847,0,0,1,.322,1.14.76.76,0,0,1-.07.1c-.007.008-.011.018-.018.026a.774.774,0,0,1-.088.083c-.008.007-.015.016-.024.023a.816.816,0,0,1-.279.139A.874.874,0,0,1,18.5,17.66Z" transform="translate(-5 -5.066)" fill="#a967aa"/>
      </g>
    </g>
  </g>
</svg>
