<svg xmlns="http://www.w3.org/2000/svg" width="26" height="26" viewBox="0 0 26 26">
  <g id="Group_16731" data-name="Group 16731" transform="translate(-1020 -988)">
    <rect id="Rectangle_7246" data-name="Rectangle 7246" width="26" height="26" transform="translate(1020 988)" fill="#fff" opacity="0"/>
    <g id="teacher-female" transform="translate(1019.813 988)">
      <path id="Path_16778" data-name="Path 16778" d="M19.656,15.469V7.031A5.356,5.356,0,0,0,14.481,2H11.894A5.356,5.356,0,0,0,6.719,7.031v8.438A4.722,4.722,0,0,0,6,17.97v3.436a.762.762,0,0,0,.8.719H19.577a.762.762,0,0,0,.8-.719V17.97a4.722,4.722,0,0,0-.719-2.5ZM8.156,7.031a3.86,3.86,0,0,1,3.737-3.594h2.587a3.86,3.86,0,0,1,3.737,3.594v6.914l-.158-.115a7.08,7.08,0,0,0-2.2-.934l.2-.115A2.976,2.976,0,0,0,17.5,9.906V5.737a.876.876,0,0,0-.525-.8.553.553,0,0,0-.374.057c-.28.151-.237.424-.517.561a.661.661,0,0,1-.367.043.884.884,0,0,1-.46-.237c-.266-.208-.287-.359-.489-.41a.654.654,0,0,0-.266,0,1.136,1.136,0,0,0-.575.323c-.158.129-.23.108-1.488.316-.6.1-.719.122-.963.144-.647.043-.977.065-1.136-.129s-.144-.5-.4-.654h0a.719.719,0,0,0-.546,0,1.193,1.193,0,0,0-.517.647h0V9.906s0,2.156,1.437,2.875l.223.108a7.288,7.288,0,0,0-2.221.942l-.158.115Zm6.469,9.343H11.75l-.632-2.156h1.351V12.062a2.329,2.329,0,0,1-1.437-.719h0a4.593,4.593,0,0,1-.719-1.437V7.031a6.044,6.044,0,0,0,4.312-.719c.51.474.8.834,1.437.719V9.906a2.566,2.566,0,0,1-.719,1.437h0a2.6,2.6,0,0,1-1.437.719v2.156h1.351ZM7.437,20.687V17.97a3.414,3.414,0,0,1,.719-2.07h0a4.686,4.686,0,0,1,1.567-1.215l1.8,6H10.312V17.812a.719.719,0,0,0-1.437,0v2.875Zm5.577,0-.841-2.875H14.2l-.841,2.875Zm4.485,0V17.812a.719.719,0,1,0-1.437,0v2.875H14.855L16.63,14.65a4.629,4.629,0,0,1,1.588,1.222h0a3.414,3.414,0,0,1,.719,2.07v2.746Z" fill="#a967aa"/>
    </g>
  </g>
</svg>
